<svg xmlns="http://www.w3.org/2000/svg" viewBox="0 0 1200 630" width="1200" height="630">
  <rect width="1200" height="630" fill="#dde8ff"/>
  <pattern id="dots" width="40" height="40" patternUnits="userSpaceOnUse">
    <circle cx="20" cy="20" r="1.5" fill="#6688cc" opacity="0.18"/>
  </pattern>
  <rect width="1200" height="630" fill="url(#dots)"/>

  <text x="110" y="220" font-family="sans-serif" font-weight="bold" font-size="86" fill="#2255cc">✅ TATETODO</text>
  <text x="114" y="300" font-family="sans-serif" font-size="38" fill="#334466">Real-time Collaborative</text>
  <text x="114" y="350" font-family="sans-serif" font-size="38" fill="#334466">Todo List</text>
  <text x="114" y="440" font-family="sans-serif" font-size="28" fill="#6688cc">todo.kaylee.jp</text>

  <rect x="740" y="80" width="370" height="470" rx="40" fill="white" opacity="0.55"/>
  <g transform="translate(760, 100) scale(1.6)">
    <ellipse cx="100" cy="250" rx="52" ry="9" fill="#00000018"/>
    <ellipse cx="79"  cy="224" rx="22" ry="14" fill="#c8d8f8" stroke="#2255cc" stroke-width="2.5"/>
    <ellipse cx="123" cy="224" rx="22" ry="14" fill="#c8d8f8" stroke="#2255cc" stroke-width="2.5"/>
    <rect x="12"  y="133" width="40" height="18" rx="9" fill="#c8d8f8" stroke="#2255cc" stroke-width="2.5" transform="rotate(28 32 142)"/>
    <rect x="148" y="133" width="40" height="18" rx="9" fill="#c8d8f8" stroke="#2255cc" stroke-width="2.5" transform="rotate(-28 168 142)"/>
    <circle cx="100" cy="145" r="75" fill="#dde8ff" stroke="#2255cc" stroke-width="3"/>
    <rect x="69" y="151" width="62" height="57" rx="8" fill="white" stroke="#6688cc" stroke-width="2"/>
    <rect x="77" y="160" width="9" height="9" rx="2" fill="#dde8ff" stroke="#2255cc" stroke-width="1.5"/>
    <polyline points="78.5,164.5 81,168 86.5,162" stroke="#2255cc" stroke-width="2" stroke-linecap="round" stroke-linejoin="round" fill="none"/>
    <line x1="91" y1="164.5" x2="124" y2="164.5" stroke="#6688cc" stroke-width="1.8" stroke-linecap="round"/>
    <rect x="77" y="174" width="9" height="9" rx="2" fill="#dde8ff" stroke="#2255cc" stroke-width="1.5"/>
    <polyline points="78.5,178.5 81,182 86.5,176" stroke="#2255cc" stroke-width="2" stroke-linecap="round" stroke-linejoin="round" fill="none"/>
    <line x1="91" y1="178.5" x2="118" y2="178.5" stroke="#6688cc" stroke-width="1.8" stroke-linecap="round"/>
    <rect x="77" y="188" width="9" height="9" rx="2" fill="none" stroke="#aab0cc" stroke-width="1.5"/>
    <line x1="91" y1="192.5" x2="120" y2="192.5" stroke="#aab0cc" stroke-width="1.8" stroke-linecap="round"/>
    <g transform="rotate(-10, 108, 70)">
      <rect x="101" y="60" width="14" height="11" rx="4" fill="#ff9999" stroke="#cc6666" stroke-width="1.5"/>
      <rect x="100" y="52" width="16" height="9" rx="1" fill="#c8c8d8" stroke="#9090a8" stroke-width="1.2"/>
      <rect x="101" y="16" width="14" height="37" fill="#f7d060" stroke="#c49a1a" stroke-width="2"/>
      <polygon points="101,16 115,16 108,4" fill="#e8a87c" stroke="#c49a1a" stroke-width="1.8"/>
      <polygon points="104.5,8 111.5,8 108,4" fill="#444" stroke="#222" stroke-width="0.8"/>
    </g>
    <ellipse cx="82"  cy="113" rx="10" ry="12" fill="#1a1a2e"/>
    <ellipse cx="118" cy="113" rx="10" ry="12" fill="#1a1a2e"/>
    <circle cx="86"  cy="108" r="4" fill="white"/>
    <circle cx="122" cy="108" r="4" fill="white"/>
    <circle cx="80"  cy="119" r="1.5" fill="white" opacity="0.5"/>
    <circle cx="116" cy="119" r="1.5" fill="white" opacity="0.5"/>
    <ellipse cx="65"  cy="127" rx="11" ry="6" fill="#ff5577" opacity="0.28"/>
    <ellipse cx="135" cy="127" rx="11" ry="6" fill="#ff5577" opacity="0.28"/>
    <path d="M 87 134 Q 100 148 113 134" stroke="#334466" stroke-width="2.5" fill="none" stroke-linecap="round"/>
  </g>
</svg>
